<svg width="39" height="40" viewBox="0 0 39 40" fill="none" xmlns="http://www.w3.org/2000/svg">
<path d="M24.4974 23.8586C25.9602 22.0878 26.8841 19.8166 26.8841 17.3144C26.8841 11.6941 22.3032 7.11321 16.6829 7.11321C11.0626 7.11321 6.48169 11.6941 6.48169 17.3144C6.48169 22.9347 11.0626 27.5156 16.6829 27.5156C19.1466 27.5156 21.4563 26.6302 23.227 25.1289L31.157 33.0589C31.3495 33.2513 31.5805 33.3283 31.8114 33.3283C32.0424 33.3283 32.2734 33.2513 32.4658 33.0589C32.8123 32.7124 32.8123 32.0965 32.4658 31.75L24.4974 23.8586ZM16.6444 25.6678C12.025 25.6678 8.29096 21.9338 8.29096 17.3144C8.29096 12.695 12.025 8.96097 16.6444 8.96097C21.2638 8.96097 24.9978 12.695 24.9978 17.3144C24.9978 21.9338 21.2638 25.6678 16.6444 25.6678Z" fill="white"/>
</svg>
